<?xml version="1.0" encoding="UTF-8" standalone="no"?>
<svg
   xmlns:dc="http://purl.org/dc/elements/1.1/"
   xmlns:cc="http://creativecommons.org/ns#"
   xmlns:rdf="http://www.w3.org/1999/02/22-rdf-syntax-ns#"
   xmlns:svg="http://www.w3.org/2000/svg"
   xmlns="http://www.w3.org/2000/svg"
   xmlns:sodipodi="http://sodipodi.sourceforge.net/DTD/sodipodi-0.dtd"
   xmlns:inkscape="http://www.inkscape.org/namespaces/inkscape"
   version="1.1"
   id="svg2"
   xml:space="preserve"
   width="666.66669"
   height="666.66669"
   viewBox="0 0 666.66669 666.66669"
   sodipodi:docname="coin.svg"
   inkscape:version="0.92.2 5c3e80d, 2017-08-06"><metadata
     id="metadata8"><rdf:RDF><cc:Work
         rdf:about=""><dc:format>image/svg+xml</dc:format><dc:type
           rdf:resource="http://purl.org/dc/dcmitype/StillImage" /><dc:title /></cc:Work></rdf:RDF></metadata><defs
     id="defs6"><clipPath
       clipPathUnits="userSpaceOnUse"
       id="clipPath20"><path
         d="M 0,500 H 500 V 0 H 0 Z"
         id="path18"
         inkscape:connector-curvature="0" /></clipPath><clipPath
       clipPathUnits="userSpaceOnUse"
       id="clipPath84"><path
         d="M 89.5905,441.371 H 170.326 V 384.114 H 89.5905 Z"
         id="path82"
         inkscape:connector-curvature="0" /></clipPath><clipPath
       clipPathUnits="userSpaceOnUse"
       id="clipPath100"><path
         d="m 87.3947,419.433 h 10.904 v -64.016 h -10.904 z"
         id="path98"
         inkscape:connector-curvature="0" /></clipPath><clipPath
       clipPathUnits="userSpaceOnUse"
       id="clipPath116"><path
         d="m 110.47,426.476 h 17.798 V 348.34 H 110.47 Z"
         id="path114"
         inkscape:connector-curvature="0" /></clipPath><clipPath
       clipPathUnits="userSpaceOnUse"
       id="clipPath132"><path
         d="m 134.981,436.686 h 32.775 v -34.113 h -32.775 z"
         id="path130"
         inkscape:connector-curvature="0" /></clipPath><clipPath
       clipPathUnits="userSpaceOnUse"
       id="clipPath148"><path
         d="m 111.416,441.622 h 18.542 v -13.145 h -18.542 z"
         id="path146"
         inkscape:connector-curvature="0" /></clipPath><clipPath
       clipPathUnits="userSpaceOnUse"
       id="clipPath164"><path
         d="m 144.142,429.457 h 18.784 v -18.315 h -18.784 z"
         id="path162"
         inkscape:connector-curvature="0" /></clipPath><clipPath
       clipPathUnits="userSpaceOnUse"
       id="clipPath192"><path
         d="m 245.929,441.371 c -20.819,0 -37.696,-23.338 -37.696,-52.127 v 0 c 0,-28.79 16.877,-52.127 37.696,-52.127 v 0 c 1.763,0 14.18,-0.308 15.879,0.017 v 0 c 18.359,3.502 21.815,25.76 21.815,52.11 v 0 c 0,26.676 -2.694,49.042 -21.384,52.127 v 0 c -0.493,0.081 -2.3,0.109 -4.547,0.109 v 0 c -4.493,0 -10.745,-0.109 -11.763,-0.109"
         id="path190"
         inkscape:connector-curvature="0" /></clipPath><clipPath
       clipPathUnits="userSpaceOnUse"
       id="clipPath204"><path
         d="M 0,500 H 500 V 0 H 0 Z"
         id="path202"
         inkscape:connector-curvature="0" /></clipPath><clipPath
       clipPathUnits="userSpaceOnUse"
       id="clipPath232"><path
         d="m 248.963,441.371 h 49.585 v -72.476 h -49.585 z"
         id="path230"
         inkscape:connector-curvature="0" /></clipPath><clipPath
       clipPathUnits="userSpaceOnUse"
       id="clipPath248"><path
         d="M 245.928,424.317 H 259.13 V 351.673 H 245.928 Z"
         id="path246"
         inkscape:connector-curvature="0" /></clipPath><clipPath
       clipPathUnits="userSpaceOnUse"
       id="clipPath264"><path
         d="m 266.323,424.08 h 10.55 v -73.546 h -10.55 z"
         id="path262"
         inkscape:connector-curvature="0" /></clipPath><clipPath
       clipPathUnits="userSpaceOnUse"
       id="clipPath320"><path
         d="m 356.177,441.371 h 24.601 v -62.084 h -24.601 z"
         id="path318"
         inkscape:connector-curvature="0" /></clipPath><clipPath
       clipPathUnits="userSpaceOnUse"
       id="clipPath336"><path
         d="m 372.836,424.508 h 6.939 v -73.969 h -6.939 z"
         id="path334"
         inkscape:connector-curvature="0" /></clipPath><clipPath
       clipPathUnits="userSpaceOnUse"
       id="clipPath374"><path
         d="m 191.596,256.661 c -0.456,-1.215 -0.193,-14.193 -0.193,-15.464 v 0 c 0,-12.88 23.659,-20.999 53.671,-20.999 v 0 c 30.014,0 55.015,8.119 55.015,20.999 v 0 c 0,1.259 0.743,13.922 0.297,15.127 v 0 c -4.128,11.123 -27.558,8.194 -54.64,8.194 v 0 c -9.986,0 -19.411,0.443 -27.538,0.443 v 0 c -13.889,0 -23.987,-1.294 -26.612,-8.3"
         id="path372"
         inkscape:connector-curvature="0" /></clipPath><clipPath
       clipPathUnits="userSpaceOnUse"
       id="clipPath392"><path
         d="M 0,500 H 500 V 0 H 0 Z"
         id="path390"
         inkscape:connector-curvature="0" /></clipPath><clipPath
       clipPathUnits="userSpaceOnUse"
       id="clipPath420"><path
         d="M 191.799,273.01 H 270.57 V 253.357 H 191.799 Z"
         id="path418"
         inkscape:connector-curvature="0" /></clipPath><clipPath
       clipPathUnits="userSpaceOnUse"
       id="clipPath436"><path
         d="m 203.095,267.677 h 34.096 v -46.036 h -34.096 z"
         id="path434"
         inkscape:connector-curvature="0" /></clipPath><clipPath
       clipPathUnits="userSpaceOnUse"
       id="clipPath504"><path
         d="m 343.65,292.965 h 77.703 v -35.42 H 343.65 Z"
         id="path502"
         inkscape:connector-curvature="0" /></clipPath><clipPath
       clipPathUnits="userSpaceOnUse"
       id="clipPath520"><path
         d="m 352.112,285.01 h 29.707 v -67.415 h -29.707 z"
         id="path518"
         inkscape:connector-curvature="0" /></clipPath><clipPath
       clipPathUnits="userSpaceOnUse"
       id="clipPath580"><path
         d="m 331.141,149.606 h 70.572 v -28.913 h -70.572 z"
         id="path578"
         inkscape:connector-curvature="0" /></clipPath><clipPath
       clipPathUnits="userSpaceOnUse"
       id="clipPath596"><path
         d="m 347.503,127.079 h 90.26 v -12.016 h -90.26 z"
         id="path594"
         inkscape:connector-curvature="0" /></clipPath><clipPath
       clipPathUnits="userSpaceOnUse"
       id="clipPath656"><path
         d="m 220.844,186.519 h 70.47 v -51.267 h -70.47 z"
         id="path654"
         inkscape:connector-curvature="0" /></clipPath><clipPath
       clipPathUnits="userSpaceOnUse"
       id="clipPath672"><path
         d="m 235.707,172.344 h 47.744 V 92.1464 h -47.744 z"
         id="path670"
         inkscape:connector-curvature="0" /></clipPath><clipPath
       clipPathUnits="userSpaceOnUse"
       id="clipPath732"><path
         d="M 75.2384,185.847 H 163.067 V 126.569 H 75.2384 Z"
         id="path730"
         inkscape:connector-curvature="0" /></clipPath><clipPath
       clipPathUnits="userSpaceOnUse"
       id="clipPath748"><path
         d="M 93.6402,170.421 H 145.944 V 88.9856 H 93.6402 Z"
         id="path746"
         inkscape:connector-curvature="0" /></clipPath><clipPath
       clipPathUnits="userSpaceOnUse"
       id="clipPath772"><path
         d="M 0,500 H 500 V 0 H 0 Z"
         id="path770"
         inkscape:connector-curvature="0" /></clipPath><clipPath
       clipPathUnits="userSpaceOnUse"
       id="clipPath192-7"><path
         d="m 245.929,441.371 c -20.819,0 -37.696,-23.338 -37.696,-52.127 v 0 c 0,-28.79 16.877,-52.127 37.696,-52.127 v 0 c 1.763,0 14.18,-0.308 15.879,0.017 v 0 c 18.359,3.502 21.815,25.76 21.815,52.11 v 0 c 0,26.676 -2.694,49.042 -21.384,52.127 v 0 c -0.493,0.081 -2.3,0.109 -4.547,0.109 v 0 c -4.493,0 -10.745,-0.109 -11.763,-0.109"
         id="path190-9"
         inkscape:connector-curvature="0" /></clipPath><clipPath
       clipPathUnits="userSpaceOnUse"
       id="clipPath248-3"><path
         d="M 245.928,424.317 H 259.13 V 351.673 H 245.928 Z"
         id="path246-8"
         inkscape:connector-curvature="0" /></clipPath><clipPath
       clipPathUnits="userSpaceOnUse"
       id="clipPath264-0"><path
         d="m 266.323,424.08 h 10.55 v -73.546 h -10.55 z"
         id="path262-2"
         inkscape:connector-curvature="0" /></clipPath></defs><sodipodi:namedview
     pagecolor="#ffffff"
     bordercolor="#666666"
     borderopacity="1"
     objecttolerance="10"
     gridtolerance="10"
     guidetolerance="10"
     inkscape:pageopacity="0"
     inkscape:pageshadow="2"
     inkscape:window-width="1440"
     inkscape:window-height="856"
     id="namedview4"
     showgrid="false"
     inkscape:zoom="0.4734015"
     inkscape:cx="133.79269"
     inkscape:cy="326.85683"
     inkscape:window-x="0"
     inkscape:window-y="0"
     inkscape:window-maximized="0"
     inkscape:current-layer="g2043" /><g
     id="g10"
     inkscape:groupmode="layer"
     inkscape:label="519185-PJUHAH-344"
     transform="matrix(1.3333333,0,0,-1.3333333,0,666.66667)"><g
       id="g2043"
       transform="matrix(3.6629578,0,0,3.6629578,-654.73272,-1151.1413)"
       style="stroke-width:0.2730034"><ellipse
         style="opacity:0.19200003;fill:#3d2571;fill-opacity:1;stroke:none;stroke-width:0.05589815;stroke-opacity:1"
         id="path2082"
         cx="246.83514"
         cy="-335.31036"
         transform="scale(1,-1)"
         rx="45.925846"
         ry="9.5212116" /><g
         style="stroke-width:0.2730034"
         id="g2078"
         transform="translate(-5.3929894,-2.868015)"><g
           style="stroke-width:0.2730034"
           id="g178"
           transform="translate(283.623,389.2437)"><path
             d="m 0,0 c 0,-26.35 -3.456,-48.608 -21.814,-52.11 -1.7,-0.325 -14.117,-0.017 -15.881,-0.017 -20.818,0 -37.695,23.338 -37.695,52.127 0,28.789 16.877,52.127 37.695,52.127 1.528,0 14.831,0.245 16.311,0 C -2.694,49.042 0,26.676 0,0"
             style="fill:#cf5300;fill-opacity:1;fill-rule:nonzero;stroke:none;stroke-width:0.2730034"
             id="path180"
             inkscape:connector-curvature="0" /></g><g
           style="stroke-width:0.2730034"
           id="g182"
           transform="translate(283.623,389.2437)"><path
             d="m 0,0 c 0,-26.35 -3.456,-48.608 -21.814,-52.11 -1.7,-0.325 -14.117,-0.017 -15.881,-0.017 -20.818,0 -37.695,23.338 -37.695,52.127 0,28.789 16.877,52.127 37.695,52.127 1.528,0 14.831,0.245 16.311,0 C -2.694,49.042 0,26.676 0,0"
             style="fill:#de6803;fill-opacity:1;fill-rule:nonzero;stroke:none;stroke-width:0.2730034"
             id="path184"
             inkscape:connector-curvature="0" /></g><g
           style="stroke-width:0.2730034"
           id="g186"><g
             style="stroke-width:0.2730034"
             id="g188"
             clip-path="url(#clipPath192-7)"><path
               d="m 206.317,424.312 h 85.087 v -72.256 h -85.087 z"
               style="fill:#ef9113;fill-opacity:1;fill-rule:nonzero;stroke:none;stroke-width:0.2730034"
               id="path194"
               inkscape:connector-curvature="0" /><path
               d="m 206.317,407.548 h 85.087 V 368.82 h -85.087 z"
               style="fill:#ffa81d;fill-opacity:1;fill-rule:nonzero;stroke:none;stroke-width:0.2730034"
               id="path196"
               inkscape:connector-curvature="0" /></g></g><g
           style="stroke-width:0.2730034"
           id="g206"
           transform="translate(298.5479,389.2437)"><path
             d="m 0,0 c 0,-28.789 -16.876,-52.127 -37.694,-52.127 -20.819,0 -37.695,23.338 -37.695,52.127 0,28.789 16.876,52.127 37.695,52.127 C -16.876,52.127 0,28.789 0,0"
             style="fill:#fecc1d;fill-opacity:1;fill-rule:nonzero;stroke:none;stroke-width:0.2730034"
             id="path208"
             inkscape:connector-curvature="0" /></g><g
           style="stroke-width:0.2730034"
           id="g210"
           transform="translate(291.4043,388.9785)"><path
             d="m 0,0 c 0,-21.232 -12.022,-38.445 -26.853,-38.445 -14.831,0 -26.853,17.213 -26.853,38.445 0,21.233 12.022,38.445 26.853,38.445 C -12.022,38.445 0,21.233 0,0"
             style="fill:#be5500;fill-opacity:1;fill-rule:nonzero;stroke:none;stroke-width:0.2730034"
             id="path212"
             inkscape:connector-curvature="0" /></g><g
           style="stroke-width:0.2730034"
           id="g214"
           transform="translate(289.2266,387.4253)"><path
             d="m 0,0 c 0,-20.372 -11.535,-36.886 -25.764,-36.886 -14.229,0 -25.764,16.514 -25.764,36.886 0,20.372 11.535,36.887 25.764,36.887 C -11.535,36.887 0,20.372 0,0"
             style="fill:#fcb913;fill-opacity:1;fill-rule:nonzero;stroke:none;stroke-width:0.2730034"
             id="path216"
             inkscape:connector-curvature="0" /></g><g
           style="stroke-width:0.2730034"
           id="g242"><g
             style="stroke-width:0.2730034"
             id="g244" /><g
             style="stroke-width:0.2730034"
             id="g256"><g
               clip-path="url(#clipPath248-3)"
               id="g254"
               style="opacity:0.22999603;stroke-width:0.2730034"><g
                 style="stroke-width:0.2730034"
                 transform="translate(248.9321,417.8843)"
                 id="g252"><path
                   d="m 0,0 c 0.008,-1.781 -3.004,-56.588 -3.004,-56.588 0,0 3.634,-8.092 13.202,-9.623 V 6.428 C 10.198,6.428 -0.031,6.858 0,0"
                   style="fill:#ffa71d;fill-opacity:1;fill-rule:nonzero;stroke:none;stroke-width:0.2730034"
                   id="path250"
                   inkscape:connector-curvature="0" /></g></g></g></g><g
           style="stroke-width:0.2730034"
           id="g258"><g
             style="stroke-width:0.2730034"
             id="g260" /><g
             style="stroke-width:0.2730034"
             id="g272"><g
               clip-path="url(#clipPath264-0)"
               id="g270"
               style="opacity:0.22999603;stroke-width:0.2730034"><g
                 style="stroke-width:0.2730034"
                 transform="translate(266.3232,424.0801)"
                 id="g268"><path
                   d="m 0,0 v -73.546 c 0,0 5.33,2.372 10.549,5.391 v 63.509 c 0,0 -3.356,4.415 -10.549,4.646"
                   style="fill:#ffa71d;fill-opacity:1;fill-rule:nonzero;stroke:none;stroke-width:0.2730034"
                   id="path266"
                   inkscape:connector-curvature="0" /></g></g></g></g><g
           style="stroke-width:0.2730034"
           id="g1998"><g
             style="stroke-width:0.2730034"
             transform="translate(275.6201,399.8945)"
             id="g218"><path
               inkscape:connector-curvature="0"
               id="path220"
               style="fill:#be5500;fill-opacity:1;fill-rule:nonzero;stroke:none;stroke-width:0.2730034"
               d="M 0,0 V 10.563 H -22.104 V 0 h 8.407 c 0.658,-1.134 1.267,-2.413 1.698,-3.784 h -10.105 v -10.098 h 8.77 c -0.529,-0.769 -1.18,-1.531 -1.969,-2.28 0,0 -4.42,-2.658 -6.801,-2.392 v -7.601 L -11.052,-39.61 H 1.252 l -12.911,15.236 c 0,0 5.478,2.002 7.221,10.492 H 0 V -3.784 H -4.602 C -4.905,-2.369 -5.306,-1.11 -5.752,0 Z" /></g><g
             style="stroke-width:0.2730034"
             transform="translate(276.748,401.2642)"
             id="g222"><path
               inkscape:connector-curvature="0"
               id="path224"
               style="fill:#fecc1d;fill-opacity:1;fill-rule:nonzero;stroke:none;stroke-width:0.2730034"
               d="M 0,0 V 10.563 H -22.103 V 0 h 8.406 c 0.658,-1.134 1.267,-2.412 1.698,-3.784 h -10.104 v -10.098 h 8.769 c -0.529,-0.769 -1.179,-1.531 -1.968,-2.279 0,0 -4.421,-2.659 -6.801,-2.393 v -7.601 L -11.052,-39.61 H 1.253 l -12.912,15.236 c 0,0 5.478,2.002 7.222,10.492 H 0 V -3.784 H -4.601 C -4.904,-2.369 -5.305,-1.11 -5.751,0 Z" /></g><g
             style="stroke-width:0.2730034"
             transform="translate(238.5435,396.8164)"
             id="g274"><path
               inkscape:connector-curvature="0"
               id="path276"
               style="fill:#fbff4c;fill-opacity:1;fill-rule:nonzero;stroke:none;stroke-width:0.2730034"
               d="m 0,0 c 0,0 -6.742,-43.213 27.78,-46.283 0,0 -34.971,-4.25 -27.78,46.283" /></g></g></g></g></g></svg>